Coordinates
version=1
nRows=7
nColumns=40
inDegrees=yes

Units are S.I. units (second, meters, Newtons, ...)
Angles are in degrees.

endheader
time	pelvis_tilt	pelvis_list	pelvis_rotation	pelvis_tx	pelvis_ty	pelvis_tz	hip_flexion_r	hip_adduction_r	hip_rotation_r	knee_angle_r	knee_angle_r_beta	ankle_angle_r	subtalar_angle_r	mtp_angle_r	hip_flexion_l	hip_adduction_l	hip_rotation_l	knee_angle_l	knee_angle_l_beta	ankle_angle_l	subtalar_angle_l	mtp_angle_l	lumbar_extension	lumbar_bending	lumbar_rotation	arm_flex_r	arm_add_r	arm_rot_r	elbow_flex_r	pro_sup_r	wrist_flex_r	wrist_dev_r	arm_flex_l	arm_add_l	arm_rot_l	elbow_flex_l	pro_sup_l	wrist_flex_l	wrist_dev_l
      0.00000000	     -2.83946293	     -3.19618329	     13.88989964	     -1.02934019	      0.88310828	     -1.09008673	     28.70968351	     -4.16217733	    -21.58050804	    -27.67329714	     -0.48299015	      2.85136307	    -10.22006116	     14.65975335	      7.19602489	      9.93935817	     18.12038230	    -26.02420951	     -0.45420814	     12.66010732	     -1.68196303	     -3.38032436	     -5.32698451	     -2.96752887	     -8.17855535	     -8.34798426	     -7.63377295	    -14.87402691	     19.10654892	     89.95437384	      0.00000000	      0.00000000	     11.27554056	     17.09376358	     18.54359729	     46.29487204	     89.95437384	      0.00000000	      0.00000000
      0.01000000	     -2.92978879	     -3.27219859	     13.72147279	     -1.02288387	      0.88258289	     -1.09051855	     28.86694635	     -4.14100606	    -22.06813465	    -25.64283438	     -0.44755189	      2.81553563	     -9.25556456	     14.61217132	      6.72773272	     10.08231195	     18.33895788	    -25.89738459	     -0.45199463	     12.86733991	     -1.64264770	     -3.39179569	     -5.32477569	     -2.84604527	     -8.35761311	     -8.47697085	     -7.57936248	    -15.39726924	     18.94814378	     89.95437384	      0.00000000	      0.00000000	     11.48023287	     17.11995176	     18.55294519	     46.91863872	     89.95437384	      0.00000000	      0.00000000
      0.02000000	     -2.94528062	     -3.30695325	     13.50996137	     -1.01605551	      0.88207891	     -1.09072802	     28.94030260	     -4.12619464	    -22.56863750	    -23.83908905	     -0.41607059	      3.12833349	     -8.00475160	     14.35592126	      6.16833888	     10.24521093	     18.59483370	    -25.86989001	     -0.45151476	     12.85464334	     -1.94221427	     -3.43871505	     -5.38831023	     -2.77106526	     -8.47827779	     -8.66767668	     -7.53822144	    -15.65053730	     18.90203722	     89.95437384	      0.00000000	      0.00000000	     11.58222384	     17.13561582	     18.64265039	     47.68085417	     89.95437384	      0.00000000	      0.00000000
      0.03000000	     -2.99452033	     -3.32169404	     13.34825087	     -1.00901751	      0.88146885	     -1.09069725	     29.01079524	     -4.12027888	    -23.03777672	    -22.16030258	     -0.38677024	      3.48756855	     -6.65461296	     13.95465448	      5.62228179	     10.43404692	     19.01962015	    -25.78099786	     -0.44996330	     12.88248361	     -2.31422601	     -3.50919143	     -5.36510667	     -2.72034843	     -8.67983884	     -8.77122986	     -7.46068141	    -16.00041816	     18.71122725	     89.95437384	      0.00000000	      0.00000000	     11.64860512	     17.13589079	     18.90049785	     48.34310776	     89.95437384	      0.00000000	      0.00000000
      0.04000000	     -3.12636422	     -3.27998553	     13.16134472	     -1.00212691	      0.88072050	     -1.09087734	     29.23282078	     -4.19271777	    -23.29048296	    -20.78939415	     -0.36284338	      3.78073767	     -5.58395215	     13.60189217	      5.13441393	     10.48983569	     19.44455015	    -25.66606127	     -0.44795728	     12.89212916	     -2.55574606	     -3.54265514	     -5.30926926	     -2.71475343	     -8.82792538	     -8.86685159	     -7.42330124	    -16.33462707	     18.56201979	     89.95437384	      0.00000000	      0.00000000	     11.75133195	     17.09485286	     19.01503381	     48.90403628	     89.95437384	      0.00000000	      0.00000000
      0.05000000	     -3.39038886	     -3.12129690	     12.97405491	     -0.99506957	      0.87964494	     -1.09081852	     29.70476853	     -4.44047306	    -23.71538094	    -19.87710607	     -0.34692095	      4.02252036	     -5.38542039	     13.47785342	      4.77345118	     10.37724992	     19.74487558	    -25.60421360	     -0.44687783	     12.93551751	     -2.55406266	     -3.54006692	     -5.09402545	     -2.88522675	     -8.94346178	     -9.04150930	     -7.38118708	    -16.42078220	     18.41900234	     89.95437384	      0.00000000	      0.00000000	     11.86947475	     17.09418510	     19.04541630	     49.30374835	     89.95437384	      0.00000000	      0.00000000
      0.06000000	     -3.58792713	     -3.03089981	     12.89516890	     -0.98805476	      0.87868949	     -1.09072330	     30.12829468	     -4.60136083	    -23.84457011	    -19.27084678	     -0.33633973	      4.16033789	     -5.15099329	     13.31962093	      4.41656416	     10.36005231	     19.98007347	    -25.55255868	     -0.44597628	     12.98410547	     -2.53811920	     -3.53093385	     -4.95673964	     -2.95950901	     -9.14371298	     -9.15900533	     -7.33255175	    -16.48816712	     18.31725971	     89.95437384	      0.00000000	      0.00000000	     11.99492743	     17.07345919	     19.07637033	     49.68738524	     89.95437384	      0.00000000	      0.00000000
